<svg width="150" height="32" viewBox="0 0 150 32" fill="none" xmlns="http://www.w3.org/2000/svg">
  <path d="M20 26c-5 4-12 6-18 6-9 0-16-3-16-10 0-6 6-9 13-10l9-1c2 0 2-1 2-2 0-3-3-3-5-3-3 0-6 1-6 4H-7c0-8 8-10 14-10 6 0 13 1 13 8v14c0 2 0 4 2 4 1 0 1 0 2-1l2 1zm-4-13l-9 1c-3 0-6 1-6 5 0 3 2 4 5 4 4 0 7-2 8-5l2-5z" fill="#FF9900"/>
  <path d="M45 10h4v12h7v3H45V10zm20 0h4v15h-4V10zm16 0h4l-6 15h-4l-6-15h4l4 10 4-10zm15 0h11v3h-7v3h6v3h-6v3h7v3H96V10zm25 0h4v12h7v3h-11V10z" fill="currentColor"/>
</svg> 