<svg width="150" height="32" viewBox="0 0 150 32" fill="none" xmlns="http://www.w3.org/2000/svg">
  <path d="M32.7 16.2c0-1.2-.1-2.3-.3-3.4H16.7v6.4h9c-.4 2-1.6 3.7-3.3 4.8v4h5.3c3.1-2.9 4.9-7.1 4.9-11.8z" fill="#4285F4"/>
  <path d="M16.7 32c4.4 0 8.1-1.5 10.8-4h-5.3c-1.4 1-3.3 1.6-5.5 1.6-4.2 0-7.8-2.8-9.1-6.6H2.2v4.1C4.9 30.9 10.4 32 16.7 32z" fill="#34A853"/>
  <path d="M7.6 23c-.3-.9-.5-1.9-.5-2.9 0-1 .2-2 .5-2.9V13H2.2C1.4 14.5 1 16.2 1 18c0 1.8.4 3.5 1.2 5l5.4-4z" fill="#FBBC05"/>
  <path d="M16.7 7.5c2.4 0 4.5.8 6.2 2.4l4.7-4.7C24.9 2.5 21.2 1 16.7 1 10.4 1 4.9 4.1 2.2 8.7l5.4 4.1c1.3-3.8 4.9-6.6 9.1-6.6z" fill="#EA4335"/>
  <path d="M50 13v-3h14v3h-5v14h-4V13h-5zm22-3h4v17h-4V10zm16 0h4l-6 17h-4l-6-17h4l4 11 4-11zm15 0h11v3h-7v4h6v3h-6v4h7v3H103V10zm25 0h4v14h7v3h-11V10z" fill="currentColor"/>
</svg> 