<svg width="150" height="32" viewBox="0 0 150 32" fill="none" xmlns="http://www.w3.org/2000/svg">
  <path d="M6.5 20.5c0 1.7-1.3 3-3 3s-3-1.3-3-3 1.3-3 3-3h3v3zm1.5 0c0-1.7 1.3-3 3-3s3 1.3 3 3v7.5c0 1.7-1.3 3-3 3s-3-1.3-3-3v-7.5z" fill="#E01E5A"/>
  <path d="M11 6.5c-1.7 0-3-1.3-3-3s1.3-3 3-3 3 1.3 3 3v3h-3zm0 1.5c1.7 0 3 1.3 3 3s-1.3 3-3 3H3.5c-1.7 0-3-1.3-3-3s1.3-3 3-3H11z" fill="#36C5F0"/>
  <path d="M25 11c0-1.7 1.3-3 3-3s3 1.3 3 3-1.3 3-3 3h-3v-3zm-1.5 0c0 1.7-1.3 3-3 3s-3-1.3-3-3V3.5c0-1.7 1.3-3 3-3s3 1.3 3 3V11z" fill="#2EB67D"/>
  <path d="M20.5 25c1.7 0 3 1.3 3 3s-1.3 3-3 3-3-1.3-3-3v-3h3zm0-1.5c-1.7 0-3-1.3-3-3s1.3-3 3-3H28c1.7 0 3 1.3 3 3s-1.3 3-3 3h-7.5z" fill="#ECB22E"/>
  <path d="M45 10h4v12h7v3H45V10zm20 0h4v15h-4V10zm16 0h4l-6 15h-4l-6-15h4l4 10 4-10zm15 0h11v3h-7v3h6v3h-6v3h7v3H96V10zm25 0h4v12h7v3h-11V10z" fill="currentColor"/>
</svg> 